<?xml version="1.0" encoding="UTF-8"?>
<svg width="254" height="254" version="1.1" viewBox="0 0 254 254" xmlns="http://www.w3.org/2000/svg" xmlns:cc="http://creativecommons.org/ns#" xmlns:dc="http://purl.org/dc/elements/1.1/" xmlns:rdf="http://www.w3.org/1999/02/22-rdf-syntax-ns#" xmlns:xlink="http://www.w3.org/1999/xlink">
 <metadata>
  <rdf:RDF>
   <cc:Work rdf:about="">
    <dc:format>image/svg+xml</dc:format>
    <dc:type rdf:resource="http://purl.org/dc/dcmitype/StillImage"/>
   </cc:Work>
  </rdf:RDF>
 </metadata>
 <defs>
  <clipPath id="clipPath19">
   <use width="100%" height="100%" xlink:href="#g15"/>
  </clipPath>
  <linearGradient id="paint0_linear_549_34" x1="37.069" x2="37.069" y2="79" gradientTransform="matrix(3.2152 0 0 3.2152 7.8155 -9.1693e-6)" gradientUnits="userSpaceOnUse">
   <stop stop-color="#6364FF" offset="0"/>
   <stop stop-color="#563ACC" offset="1"/>
  </linearGradient>
  <linearGradient id="linearGradient1797" x1="135.63" x2="135.63" y1=".046043" y2="254.67" gradientTransform="matrix(.99789 0 0 .99789 1.5646 .034725)" gradientUnits="userSpaceOnUse">
   <stop stop-color="#6364FF" offset="0"/>
   <stop stop-color="#563ACC" offset="1"/>
  </linearGradient>
  <clipPath id="clipPath23726">
   <path d="m141.71 237.81 64.004-27.637" color="#000000" fill="#3088d4" stroke-width="5.0942" style="-inkscape-stroke:none"/>
   <path d="m204.71 207.83-64.004 27.637 2.0195 4.6777 64.004-27.637z" color="#000000" fill="#3088d4" style="-inkscape-stroke:none"/>
   <path d="m146.76 211.01 65.133-3.6016-47.283 44.94c3.7104-16.08-3.5506-32.754-17.85-41.338z" color="#000000" fill="#3088d4" fill-rule="evenodd" stroke-linejoin="round" stroke-width="3.5022" style="-inkscape-stroke:none"/>
   <path d="m211.79 205.66-65.133 3.6016a1.7513 1.7513 0 0 0-0.80469 3.25c13.666 8.2038 20.583 24.109 17.045 39.443a1.7513 1.7513 0 0 0 2.9141 1.6621l47.281-44.939a1.7513 1.7513 0 0 0-1.3027-3.0176zm-4.5625 3.7617-40.162 38.172c1.2671-13.465-4.5052-26.674-15.236-35.109z" color="#000000" fill="#3088d4" fill-rule="evenodd" stroke-linejoin="round" style="-inkscape-stroke:none"/>
  </clipPath>
 </defs>
 <path d="m245.22 56.233c-3.6718-27.291-27.457-48.798-55.654-52.966-4.7572-0.70422-22.781-3.2671-64.533-3.2671h-0.31188c-41.764 0-50.723 2.5629-55.481 3.2671-27.411 4.0521-52.444 23.378-58.518 50.992-2.9213 13.6-3.233 28.677-2.6903 42.507 0.77362 19.833 0.92372 39.632 2.725 59.385 1.2452 13.121 3.4176 26.137 6.5007 38.951 5.7733 23.666 29.143 43.361 52.04 51.396 24.514 8.3794 50.877 9.7706 76.138 4.0177 2.7789-0.64657 5.523-1.397 8.2328-2.2513 6.1426-1.951 13.336-4.1331 18.624-7.9656 0.0727-0.054 0.13214-0.12347 0.17394-0.2032 0.0421-0.0801 0.0656-0.16848 0.0685-0.25882v-19.141c-1e-3 -0.0842-0.0212-0.16719-0.0588-0.24275-0.0376-0.0756-0.0913-0.14179-0.15787-0.19388-0.0665-0.0521-0.14372-0.0884-0.22603-0.10674-0.0823-0.0193-0.16783-0.0193-0.24982 9.6e-4 -16.184 3.865-32.768 5.8028-49.407 5.7722-28.635 0-36.337-13.588-38.542-19.245-1.7725-4.889-2.8982-9.9886-3.3483-15.169-0.0048-0.0871 0.01125-0.17394 0.04662-0.25368 0.03505-0.0797 0.08874-0.14983 0.15626-0.20481 0.06752-0.0553 0.14693-0.0936 0.23214-0.11221 0.0852-0.0193 0.1733-0.0161 0.25786 3e-3 15.914 3.8389 32.228 5.7767 48.599 5.7722 3.9373 0 7.8631 0 11.8-0.10385 16.465-0.46171 33.82-1.3044 50.019-4.4675 0.40415-0.081 0.8083-0.15015 1.1546-0.254 25.552-4.9067 49.87-20.307 52.34-59.304 0.0923-1.5352 0.32345-16.081 0.32345-17.675 0.0113-5.4144 1.7433-38.409-0.25432-58.681z" fill="url(#paint0_linear_549_34)" stroke-width="3.2152"/>
 <g transform="matrix(1.0675 0 0 1.0675 10.855 .097228)" clip-path="url(#clipPath19)"></g>
 <g transform="matrix(1.0036 0 0 1.0036 13.61 5.4815)" aria-label="A">
  <path d="m139.9 125.52h-52.91c-6.8826 4.8864-0.37998 21.126-8.3496 23.906-8.1766 2.8529-22.306 2.0335-34.014 0-9.6812-1.6816 10.319-104.57 48.604-131.22 11.037-7.6818 29.305-7.6818 40.342 0 38.284 26.646 55.825 130.04 48.604 131.22-11.338 1.8487-27.332 3.0435-34.014 0-7.6728-3.4948-1.395-19.014-8.2617-23.906zm-44.473-24.346c6.9548 9.7575 28.985 9.7523 35.947 0 10.691-14.975 0.47033-52.193-17.93-52.207-18.41-0.01385-28.703 37.216-18.018 52.207z" fill="#fff" stroke-width=".9375"/>
 </g>
 <path d="m6.0665 0h247.93v254h-247.93z" clip-path="url(#clipPath23726)" fill="url(#linearGradient1797)" fill-rule="evenodd" stroke-width=".9979"/>
</svg>
