<svg xmlns="http://www.w3.org/2000/svg" xmlns:xlink="http://www.w3.org/1999/xlink" width="254" height="254" viewBox="0 0 238.125 238.125"><defs><marker id="b" orient="auto" overflow="visible"><path fill="#3088d4" fill-rule="evenodd" stroke="#3088d4" stroke-linejoin="round" stroke-width=".688" d="M-10.69-4.437L1.328-.017-10.69 4.401c1.92-2.61 1.908-6.18 0-8.84z"/></marker><clipPath id="a"><use width="100%" height="100%" xlink:href="#g15"/></clipPath></defs><path fill="#fff" d="M188.37 80.174v60.941h-24.144v-59.15c0-12.469-5.246-18.798-15.74-18.798-11.602 0-17.418 7.508-17.418 22.352v32.376h-24.001V85.519c0-14.845-5.816-22.352-17.419-22.352-10.494 0-15.74 6.329-15.74 18.798v59.15H49.764V80.174c0-12.455 3.171-22.352 9.541-29.675 6.569-7.322 15.171-11.076 25.85-11.076 12.355 0 21.711 4.749 27.898 14.248l6.014 10.081 6.015-10.081c6.185-9.499 15.541-14.248 27.898-14.248 10.678 0 19.28 3.754 25.85 11.076 6.369 7.323 9.54 17.22 9.54 29.675"/><path fill="#3088d4" d="M42.314 28.607h162.21v127.8H42.314zm180.35 110.58c-3.181 16.366-28.492 34.278-57.562 37.749-15.159 1.809-30.084 3.471-45.999 2.741-26.028-1.192-46.565-6.212-46.565-6.212 0 2.533.156 4.946.469 7.202 3.384 25.686 25.47 27.225 46.39 27.942 21.117.723 39.92-5.206 39.92-5.206l.867 19.09s-14.77 7.931-41.08 9.39c-14.51.797-32.525-.365-53.507-5.919-45.508-12.045-53.334-60.554-54.53-109.77-.366-14.614-.14-28.394-.14-39.919 0-50.33 32.975-65.082 32.975-65.082C60.53 3.557 89.062.346 118.722.103h.729c29.661.243 58.211 3.454 74.838 11.09 0 0 32.975 14.752 32.975 65.082 0 0 .414 37.134-4.599 62.915" paint-order="fill markers stroke"/><path fill="#fff" d="M144.19 123.138H94.453c-6.47 4.594-.358 19.86-7.85 22.474-7.686 2.682-20.969 1.911-31.975 0-9.101-1.581 9.7-98.303 45.691-123.356 10.376-7.222 27.549-7.222 37.924 0 35.99 25.049 52.48 122.246 45.692 123.356-10.659 1.738-25.694 2.86-31.976 0-7.213-3.286-1.311-17.875-7.767-22.474zm-41.807-22.887c6.538 9.173 27.248 9.168 33.793 0 10.05-14.077.442-49.065-16.856-49.078-17.306-.013-26.983 34.986-16.938 49.078z" aria-label="A"/><path fill="#3088d4" stroke="#3088d4" stroke-width="4.772" marker-end="url(#b)" d="M133.43 222.77l59.954-25.888"/></svg>